HIERARCHY
ROOT hip
{
  OFFSET 81.3352 86.3102 125.771
  CHANNELS 6 Xposition Yposition Zposition Zrotation Xrotation Yrotation
  JOINT abdomen
  {
    OFFSET 0 20.6881 -0.73152
    CHANNELS 3 Zrotation Xrotation Yrotation
    JOINT chest
    {
      OFFSET 0 11.7043 -0.48768
      CHANNELS 3 Zrotation Xrotation Yrotation
      JOINT neck
      {
        OFFSET 0 22.1894 -2.19456
        CHANNELS 3 Zrotation Xrotation Yrotation
        JOINT head
        {
          OFFSET -0.24384 7.07133 1.2192
          CHANNELS 3 Zrotation Xrotation Yrotation
          JOINT leftEye
          {
            OFFSET 4.14528 8.04674 8.04672
            CHANNELS 3 Zrotation Xrotation Yrotation
            End Site
            {
              OFFSET 1 0 0
            }
          }
          JOINT rightEye
          {
            OFFSET -3.6576 8.04674 8.04672
            CHANNELS 3 Zrotation Xrotation Yrotation
            End Site
            {
              OFFSET 1 0 0
            }
          }
        }
      }
      JOINT rCollar
      {
        OFFSET -2.68224 19.2634 -4.8768
        CHANNELS 3 Zrotation Xrotation Yrotation
        JOINT rShldr
        {
          OFFSET -8.77824 -1.95073 1.46304
          CHANNELS 3 Zrotation Xrotation Yrotation
          JOINT rForeArm
          {
            OFFSET -28.1742 -1.7115 0.48768
            CHANNELS 3 Zrotation Xrotation Yrotation
            JOINT rHand
            {
              OFFSET -22.5879 0.773209 7.07136
              CHANNELS 3 Zrotation Xrotation Yrotation
              JOINT rThumb1
              {
                OFFSET -1.2192 -0.487915 3.41376
                CHANNELS 3 Zrotation Xrotation Yrotation
                JOINT rThumb2
                {
                  OFFSET -3.37035 -0.52449 3.41376
                  CHANNELS 3 Zrotation Xrotation Yrotation
                  End Site
                  {
                    OFFSET -1.78271 -1.18214 1.43049
                  }
                }
              }
              JOINT rIndex1
              {
                OFFSET -7.75947 0.938293 5.60832
                CHANNELS 3 Zrotation Xrotation Yrotation
                JOINT rIndex2
                {
                  OFFSET -2.54057 -0.884171 1.56538
                  CHANNELS 3 Zrotation Xrotation Yrotation
                  End Site
                  {
                    OFFSET -1.62519 -0.234802 1.16502
                  }
                }
              }
              JOINT rMid1
              {
                OFFSET -8.24714 1.18213 3.41376
                CHANNELS 3 Zrotation Xrotation Yrotation
                JOINT rMid2
                {
                  OFFSET -3.10165 -0.590103 1.0647
                  CHANNELS 3 Zrotation Xrotation Yrotation
                  End Site
                  {
                    OFFSET -2.48547 -0.328903 0.83742
                  }
                }
              }
              JOINT rRing1
              {
                OFFSET -8.82822 0.546677 1.51678
                CHANNELS 3 Zrotation Xrotation Yrotation
                JOINT rRing2
                {
                  OFFSET -2.60934 -0.819778 -0.0198488
                  CHANNELS 3 Zrotation Xrotation Yrotation
                  End Site
                  {
                    OFFSET -2.33842 -0.294052 0.168128
                  }
                }
              }
              JOINT rPinky1
              {
                OFFSET -8.27202 -0.0477905 -0.4584
                CHANNELS 3 Zrotation Xrotation Yrotation
                JOINT rPinky2
                {
                  OFFSET -1.82734 -0.647385 -0.700984
                  CHANNELS 3 Zrotation Xrotation Yrotation
                  End Site
                  {
                    OFFSET -1.69225 -0.51767 -0.607171
                  }
                }
              }
            }
          }
        }
      }
      JOINT lCollar
      {
        OFFSET 2.68224 19.2634 -4.8768
        CHANNELS 3 Zrotation Xrotation Yrotation
        JOINT lShldr
        {
          OFFSET 8.77824 -1.95073 1.46304
          CHANNELS 3 Zrotation Xrotation Yrotation
          JOINT lForeArm
          {
            OFFSET 28.1742 -1.7115 0.48768
            CHANNELS 3 Zrotation Xrotation Yrotation
            JOINT lHand
            {
              OFFSET 22.5879 0.773209 7.07136
              CHANNELS 3 Zrotation Xrotation Yrotation
              JOINT lThumb1
              {
                OFFSET 1.2192 -0.487915 3.41376
                CHANNELS 3 Zrotation Xrotation Yrotation
                JOINT lThumb2
                {
                  OFFSET 3.37035 -0.52449 3.41376
                  CHANNELS 3 Zrotation Xrotation Yrotation
                  End Site
                  {
                    OFFSET 1.78271 -1.18214 1.43049
                  }
                }
              }
              JOINT lIndex1
              {
                OFFSET 7.75947 0.938293 5.60832
                CHANNELS 3 Zrotation Xrotation Yrotation
                JOINT lIndex2
                {
                  OFFSET 2.54057 -0.884171 1.56538
                  CHANNELS 3 Zrotation Xrotation Yrotation
                  End Site
                  {
                    OFFSET 1.62519 -0.234802 1.16502
                  }
                }
              }
              JOINT lMid1
              {
                OFFSET 8.24714 1.18213 3.41376
                CHANNELS 3 Zrotation Xrotation Yrotation
                JOINT lMid2
                {
                  OFFSET 3.10165 -0.590103 1.0647
                  CHANNELS 3 Zrotation Xrotation Yrotation
                  End Site
                  {
                    OFFSET 2.48547 -0.328903 0.83742
                  }
                }
              }
              JOINT lRing1
              {
                OFFSET 8.82822 0.546677 1.51678
                CHANNELS 3 Zrotation Xrotation Yrotation
                JOINT lRing2
                {
                  OFFSET 2.60934 -0.819778 -0.0198488
                  CHANNELS 3 Zrotation Xrotation Yrotation
                  End Site
                  {
                    OFFSET 2.33842 -0.294052 0.168128
                  }
                }
              }
              JOINT lPinky1
              {
                OFFSET 8.27202 -0.0477905 -0.4584
                CHANNELS 3 Zrotation Xrotation Yrotation
                JOINT lPinky2
                {
                  OFFSET 1.82734 -0.647385 -0.700984
                  CHANNELS 3 Zrotation Xrotation Yrotation
                  End Site
                  {
                    OFFSET 1.69225 -0.51767 -0.607171
                  }
                }
              }
            }
          }
        }
      }
    }
  }
  JOINT rButtock
  {
    OFFSET -8.77824 4.35084 1.2192
    CHANNELS 3 Zrotation Xrotation Yrotation
    JOINT rThigh
    {
      OFFSET 0 -1.70687 -2.19456
      CHANNELS 3 Zrotation Xrotation Yrotation
      JOINT rShin
      {
        OFFSET 0 -36.8199 0.73152
        CHANNELS 3 Zrotation Xrotation Yrotation
        JOINT rFoot
        {
          OFFSET 0.73152 -45.1104 -5.12064
          CHANNELS 3 Zrotation Xrotation Yrotation
          End Site
          {
            OFFSET -1.1221 -3.69964 12.103
          }
        }
      }
    }
  }
  JOINT lButtock
  {
    OFFSET 8.77824 4.35084 1.2192
    CHANNELS 3 Zrotation Xrotation Yrotation
    JOINT lThigh
    {
      OFFSET 0 -1.70687 -2.19456
      CHANNELS 3 Zrotation Xrotation Yrotation
      JOINT lShin
      {
        OFFSET 0 -36.8199 0.73152
        CHANNELS 3 Zrotation Xrotation Yrotation
        JOINT lFoot
        {
          OFFSET -0.73152 -45.1104 -5.12064
          CHANNELS 3 Zrotation Xrotation Yrotation
          End Site
          {
            OFFSET 1.1221 -3.69964 12.103
          }
        }
      }
    }
  }
}
MOTION
Frames:	6
Frame Time:	0.00833333
57.6885 85.2022 -36.4433 -0.457846 -0.000986267 0.00783593 0.602237 -0.00285573 0.0171683 0.166046 -0.00431795 0.0287694 -7.09076e-015 0 -4.34841e-017 -2.14066e-014 3.18055e-015 -9.62863e-017 -0 0 0 -0 0 0 -3.62922e-015 8.15328e-018 1.49089e-016 -7.47905e-014 -2.04997e-016 1.98785e-016 -1.29811e-012 3.92003e-013 0 -1.4887e-011 -3.74063e-013 -1.11319e-013 -3.51153e-011 4.15732e-014 -2.16278e-013 -6.06583e-011 7.63333e-014 -3.70535e-013 -3.51086e-011 4.33351e-014 -2.29e-013 7.73091 5.47488 0.417314 -3.5116e-011 4.12478e-014 -2.13097e-013 2.90554 0.965183 0.102902 -3.51054e-011 4.17448e-014 -2.13892e-013 10.2786 0.731801 0.0259123 -3.51153e-011 4.29375e-014 -2.06736e-013 2.22167 -0.733487 -0.20892 -3.72605e-015 6.98852e-018 -1.49089e-016 -7.71194e-014 1.92573e-016 -1.59028e-015 -1.30438e-012 -3.81667e-013 -9.54166e-015 -1.48886e-011 4.21125e-013 -8.5875e-014 -3.5125e-011 8.20358e-014 -2.13097e-013 -6.06488e-011 1.43125e-013 -3.61788e-013 -3.5128e-011 8.3092e-014 -2.06736e-013 -7.73091 5.47488 -0.417314 -3.51263e-011 8.20981e-014 -2.16278e-013 -2.90554 0.965183 -0.102902 -3.51308e-011 8.19987e-014 -2.10712e-013 -10.2786 0.731801 -0.0259123 -3.51163e-011 8.46823e-014 -2.16278e-013 -2.22167 -0.733487 0.20892 -2.03217e-016 0 -3.88251e-019 0.985519 -4.60217 -0.081244 -0.0020229 2.78415 -0.00804337 -0.5327 1.81804 0.098236 2.03217e-016 0 3.88251e-019 -0.0700999 -2.29253 0.0218594 0.00846623 -1.39934 0.0723301 0.526111 3.69178 -0.136076 
57.3039 84.5578 -36.8846 -0.781724 0.680037 -1.83927 2.17573 1.56277 -0.147034 0.482923 0.307165 -0.00436643 -2.28537 2.95628 -3.18186 3.77592 3.32001 -6.49856 -0 0 0 -0 0 0 1.99815e-015 -9.62548e-016 3.43265e-014 21.6654 7.26359 -3.50381 -12.2472 -9.2085 13.549 0.0812886 -6.332 -0.870402 -1.14876e-010 2.89289e-010 1.24923e-010 -2.00821e-010 5.04144e-010 2.15046e-010 -1.14868e-010 2.8929e-010 1.24912e-010 7.73091 5.47488 0.417314 -1.14877e-010 2.89289e-010 1.24924e-010 2.90554 0.965183 0.102902 -1.14869e-010 2.89289e-010 1.24925e-010 10.2786 0.731801 0.0259123 -1.14879e-010 2.8929e-010 1.2493e-010 2.22167 -0.733487 -0.20892 1.92022e-015 -9.64769e-016 3.40407e-014 -20.677 2.38855 2.97631 6.2847 -3.43709 -9.10265 -0.187047 -9.61922 1.28411 -1.12074e-010 -1.11617e-010 2.21439e-010 -1.99641e-010 -1.96084e-010 3.80511e-010 -1.12076e-010 -1.11617e-010 2.21446e-010 -7.73091 5.47488 -0.417314 -1.12075e-010 -1.11618e-010 2.21435e-010 -2.90554 0.965183 -0.102902 -1.12078e-010 -1.11618e-010 2.2144e-010 -10.2786 0.731801 -0.0259123 -1.12064e-010 -1.11615e-010 2.21435e-010 -2.22167 -0.733487 0.20892 -2.03217e-016 0 -3.88251e-019 1.90919 -1.6975 2.79631 0.00698083 5.16101 0.0717223 -0.609361 -0.586017 -1.65044 2.03217e-016 0 3.88251e-019 2.56655 -8.87887 -1.99401 -0.00417565 1.37576 -0.0144677 0.820469 -0.060992 4.4293 
57.4665 84.5676 -36.1215 -1.06744 1.39942 -3.78262 3.84745 3.22072 -0.323111 0.819401 0.630759 -0.0400034 -4.34362 6.06435 -6.57636 8.58395 6.67301 -13.444 -0 0 0 -0 0 0 8.88105e-015 -1.93932e-016 7.32739e-014 45.5607 14.8449 -7.3888 -20.4484 -17.1824 28.901 -0.0469066 -13.0122 -1.82538 -2.01393e-010 6.2032e-010 2.84908e-010 -3.53341e-010 1.08157e-009 4.90623e-010 -2.01382e-010 6.20321e-010 2.84898e-010 7.73091 5.47488 0.417314 -2.01394e-010 6.20321e-010 2.84906e-010 2.90554 0.965183 0.102902 -2.01387e-010 6.20321e-010 2.84908e-010 10.2786 0.731801 0.0259123 -2.01398e-010 6.20322e-010 2.84912e-010 2.22167 -0.733487 -0.20892 8.82382e-015 -1.97365e-016 7.30006e-014 -42.8047 4.90615 6.12983 11.747 -6.77341 -18.817 0.11057 -19.7663 2.76698 -1.84431e-010 -2.26883e-010 4.6618e-010 -3.31307e-010 -3.98987e-010 8.01429e-010 -1.84433e-010 -2.26883e-010 4.66188e-010 -7.73091 5.47488 -0.417314 -1.84432e-010 -2.26884e-010 4.66174e-010 -2.90554 0.965183 -0.102902 -1.84434e-010 -2.26885e-010 4.6618e-010 -10.2786 0.731801 -0.0259123 -1.84421e-010 -2.26882e-010 4.66175e-010 -2.22167 -0.733487 0.20892 -2.03217e-016 0 -3.88251e-019 2.57072 1.33418 5.8394 0.00915534 7.67181 0.156265 -0.853468 -3.1353 -3.52983 2.03217e-016 0 3.88251e-019 4.84313 -15.8161 -4.27566 -0.00854721 4.26233 -0.106168 1.79304 -4.01855 9.32441 
57.5297 84.5647 -35.3906 -1.29791 2.03361 -5.5366 5.34972 4.69388 -0.476874 1.11776 0.930131 -0.0706473 -5.86629 8.75886 -9.6464 13.5645 9.44607 -19.7414 -0 0 0 -0 0 0 1.32529e-014 -2.90395e-015 1.02681e-013 67.8124 21.4526 -11.2128 -24.1584 -21.3318 43.7642 -0.361279 -18.9779 -2.74457 -2.74399e-010 8.67784e-010 3.75203e-010 -4.81147e-010 1.51228e-009 6.45878e-010 -2.74386e-010 8.67783e-010 3.75193e-010 7.73091 5.47488 0.417314 -2.744e-010 8.67784e-010 3.75198e-010 2.90554 0.965183 0.102902 -2.74395e-010 8.67784e-010 3.75202e-010 10.2786 0.731801 0.0259123 -2.74405e-010 8.67785e-010 3.75204e-010 2.22167 -0.733487 -0.20892 1.32128e-014 -2.90829e-015 1.0242e-013 -62.7769 7.08805 8.99045 15.6802 -9.27193 -27.6499 0.886218 -28.7954 4.33505 -2.65971e-010 -3.35016e-010 6.64743e-010 -4.77625e-010 -5.88539e-010 1.14226e-009 -2.65973e-010 -3.35016e-010 6.64753e-010 -7.73091 5.47488 -0.417314 -2.65972e-010 -3.35017e-010 6.64737e-010 -2.90554 0.965183 -0.102902 -2.65973e-010 -3.35018e-010 6.64742e-010 -10.2786 0.731801 -0.0259123 -2.6596e-010 -3.35016e-010 6.64737e-010 -2.22167 -0.733487 0.20892 -2.03217e-016 0 -3.88251e-019 2.88354 4.06012 8.56889 0.0048594 9.91466 0.233855 -1.20371 -5.37305 -5.17023 2.03217e-016 0 3.88251e-019 6.3573 -21.9422 -6.42088 -0.0041309 6.92595 -0.189389 3.19649 -7.355 13.6741 
57.6037 84.521 -34.6549 -1.48248 2.46277 -6.81417 6.4087 5.70524 -0.57342 1.32005 1.16895 -0.0887992 -6.75884 10.5257 -11.807 17.4209 11.2556 -24.1887 -0 0 0 -0 0 0 1.13471e-014 -1.43106e-014 1.08238e-013 83.9308 25.9422 -14.2242 -25.4028 -21.9887 54.4158 -0.707407 -23.1745 -3.44911 -3.13627e-010 9.06326e-010 2.91272e-010 -5.47171e-010 1.57619e-009 5.00329e-010 -3.13613e-010 9.06325e-010 2.91262e-010 7.73091 5.47488 0.417314 -3.13628e-010 9.06327e-010 2.91266e-010 2.90554 0.965183 0.102902 -3.13624e-010 9.06327e-010 2.9127e-010 10.2786 0.731801 0.0259123 -3.13634e-010 9.06328e-010 2.91272e-010 2.22167 -0.733487 -0.20892 1.13151e-014 -1.4315e-014 1.0799e-013 -76.8297 8.50446 11.059 17.9716 -10.6562 -33.9565 1.79256 -35.0878 5.66598 -3.70469e-010 -4.25316e-010 7.47863e-010 -6.60573e-010 -7.44714e-010 1.28286e-009 -3.7047e-010 -4.25317e-010 7.47872e-010 -7.73091 5.47488 -0.417314 -3.7047e-010 -4.25318e-010 7.47857e-010 -2.90554 0.965183 -0.102902 -3.7047e-010 -4.25319e-010 7.47861e-010 -10.2786 0.731801 -0.0259123 -3.70458e-010 -4.25317e-010 7.47857e-010 -2.22167 -0.733487 0.20892 -2.03217e-016 0 -3.88251e-019 2.9269 6.07809 10.483 -0.00158153 11.4877 0.291859 -1.49367 -6.85531 -6.18655 2.03217e-016 0 3.88251e-019 7.0919 -26.1521 -7.84466 0.00521587 9.03221 -0.250049 4.35765 -9.37622 16.5099 
57.7497 84.4345 -33.8953 -1.71228 2.6329 -7.43237 6.92144 6.08931 -0.583897 1.37596 1.31232 -0.0869396 -7.08848 11.0264 -12.6222 19.0298 12.0851 -25.897 -0 0 0 -0 0 0 -1.77908e-015 -4.45268e-014 7.00072e-014 90.4264 27.7259 -15.5937 -25.7802 -21.7604 58.6704 -0.882913 -24.9316 -3.7617 -3.03084e-010 5.70854e-010 -1.25672e-010 -5.20576e-010 9.82626e-010 -2.20372e-010 -3.03071e-010 5.70853e-010 -1.25682e-010 7.73091 5.47488 0.417314 -3.03086e-010 5.70855e-010 -1.25679e-010 2.90554 0.965183 0.102902 -3.03083e-010 5.70855e-010 -1.25674e-010 10.2786 0.731801 0.0259123 -3.03092e-010 5.70857e-010 -1.25672e-010 2.22167 -0.733487 -0.20892 -1.81739e-015 -4.45303e-014 6.97711e-014 -82.3658 8.87987 11.9819 18.8272 -11.1537 -36.5783 2.25636 -37.593 6.27304 -5.58108e-010 -5.1187e-010 6.38515e-010 -9.82053e-010 -8.8959e-010 1.0883e-009 -5.5811e-010 -5.11871e-010 6.38523e-010 -7.73091 5.47488 -0.417314 -5.58109e-010 -5.11873e-010 6.3851e-010 -2.90554 0.965183 -0.102902 -5.58111e-010 -5.11873e-010 6.38514e-010 -10.2786 0.731801 -0.0259123 -5.581e-010 -5.1187e-010 6.38509e-010 -2.22167 -0.733487 0.20892 -2.03217e-016 0 -3.88251e-019 2.9585 7.09976 11.2167 -0.00488656 12.1568 0.319959 -1.55751 -7.30707 -6.30143 2.03217e-016 0 3.88251e-019 7.40763 -27.7964 -7.8325 0.0139716 10.3901 -0.276493 4.58399 -9.71946 17.0088 
